<svg width="44" height="44" viewBox="0 0 44 44" fill="none" xmlns="http://www.w3.org/2000/svg">
<rect width="44" height="44" rx="10" fill="#F76707"/>
<mask id="mask0" mask-type="alpha" maskUnits="userSpaceOnUse" x="-1" y="0" width="45" height="44">
<rect x="-0.00012207" width="44" height="44" rx="10" fill="#F76707"/>
</mask>
<g mask="url(#mask0)">
<g style="mix-blend-mode:multiply">
<path d="M4.62604 43.2335C4.86854 43.3164 4.86854 43.5652 4.62604 43.6482C4.38355 43.7311 4.06021 43.7311 3.89854 43.6482C3.65605 43.5652 3.65605 43.3164 3.89854 43.2335C4.06021 43.1505 4.38355 43.1505 4.62604 43.2335Z" fill="#16110D"/>
<path d="M0.747113 43.2335C0.989607 43.3164 0.989607 43.5652 0.747113 43.6482C0.50462 43.7311 0.181301 43.7311 0.0196385 43.6482C-0.222855 43.5652 -0.222855 43.3164 0.0196385 43.2335C0.181301 43.1505 0.50462 43.1505 0.747113 43.2335Z" fill="#16110D"/>
<path d="M2.68657 42.0717C2.92906 42.1546 2.92906 42.4034 2.68657 42.4864C2.44407 42.5693 2.12075 42.5693 1.95909 42.4864C1.7166 42.4034 1.7166 42.1546 1.95909 42.0717C2.12075 41.9887 2.44407 41.9887 2.68657 42.0717Z" fill="#16110D"/>
<path d="M0.747113 40.9099C0.989607 40.9929 0.989607 41.2417 0.747113 41.3246C0.50462 41.4076 0.181301 41.4076 0.0196385 41.3246C-0.222855 41.2417 -0.222855 40.9929 0.0196385 40.9099C0.181301 40.827 0.50462 40.827 0.747113 40.9099Z" fill="#16110D"/>
<path d="M6.56547 42.0717C6.80797 42.1546 6.80797 42.4034 6.56547 42.4864C6.32298 42.5693 5.99966 42.5693 5.838 42.4864C5.5955 42.4034 5.5955 42.1546 5.838 42.0717C6.08049 41.9887 6.40381 41.9887 6.56547 42.0717Z" fill="#16110D"/>
<path d="M8.58598 40.9099C8.82847 40.9929 8.82847 41.2417 8.58598 41.3246C8.34349 41.4076 8.02017 41.4076 7.85851 41.3246C7.61601 41.2417 7.61601 40.9929 7.85851 40.9099C8.02017 40.827 8.34349 40.827 8.58598 40.9099Z" fill="#16110D"/>
<path d="M10.1214 40.3287C10.4339 40.3287 10.6872 40.1802 10.6872 39.997C10.6872 39.8138 10.4339 39.6652 10.1214 39.6652C9.80888 39.6652 9.55554 39.8138 9.55554 39.997C9.55554 40.1802 9.80888 40.3287 10.1214 40.3287Z" fill="#16110D"/>
<path d="M12.4644 38.5864C12.7069 38.6694 12.7069 38.9182 12.4644 39.0011C12.2219 39.0841 11.8986 39.0841 11.7369 39.0011C11.4944 38.9182 11.4944 38.6694 11.7369 38.5864C11.8986 38.5035 12.2219 38.5035 12.4644 38.5864Z" fill="#16110D"/>
<path d="M14.0813 38.0052C14.3938 38.0052 14.6471 37.8567 14.6471 37.6735C14.6471 37.4903 14.3938 37.3417 14.0813 37.3417C13.7688 37.3417 13.5155 37.4903 13.5155 37.6735C13.5155 37.8567 13.7688 38.0052 14.0813 38.0052Z" fill="#16110D"/>
<path d="M16.3438 36.2629C16.5863 36.3459 16.5863 36.5947 16.3438 36.6776C16.1013 36.7606 15.778 36.7606 15.6163 36.6776C15.3738 36.5947 15.3738 36.3459 15.6163 36.2629C15.8588 36.18 16.1822 36.18 16.3438 36.2629Z" fill="#16110D"/>
<path d="M18.3633 35.1012C18.6058 35.1841 18.6058 35.433 18.3633 35.5159C18.1209 35.5988 17.7975 35.5988 17.6358 35.5159C17.3934 35.433 17.3934 35.1841 17.6358 35.1012C17.7975 35.0183 18.1209 35.0183 18.3633 35.1012Z" fill="#16110D"/>
<path d="M3.89854 40.9099C4.14104 40.827 4.46438 40.827 4.62604 40.9099C4.86854 40.9929 4.86854 41.2417 4.62604 41.3246C4.38355 41.4076 4.06021 41.4076 3.89854 41.3246C3.65605 41.2417 3.65605 41.0758 3.89854 40.9099Z" fill="#16110D"/>
<path d="M6.56547 39.7482C6.80797 39.8311 6.80797 40.0799 6.56547 40.1629C6.32298 40.2458 5.99966 40.2458 5.838 40.1629C5.5955 40.0799 5.5955 39.8311 5.838 39.7482C6.08049 39.6652 6.40381 39.6652 6.56547 39.7482Z" fill="#16110D"/>
<path d="M8.58598 38.5864C8.82847 38.6694 8.82847 38.9182 8.58598 39.0011C8.34349 39.0841 8.02017 39.0841 7.85851 39.0011C7.61601 38.9182 7.61601 38.6694 7.85851 38.5864C8.02017 38.5035 8.34349 38.5035 8.58598 38.5864Z" fill="#16110D"/>
<path d="M10.1214 38.0052C10.4339 38.0052 10.6872 37.8567 10.6872 37.6735C10.6872 37.4903 10.4339 37.3417 10.1214 37.3417C9.80888 37.3417 9.55554 37.4903 9.55554 37.6735C9.55554 37.8567 9.80888 38.0052 10.1214 38.0052Z" fill="#16110D"/>
<path d="M12.4644 36.2629C12.7069 36.3459 12.7069 36.5947 12.4644 36.6776C12.2219 36.7606 11.8986 36.7606 11.7369 36.6776C11.4944 36.5947 11.4944 36.3459 11.7369 36.2629C11.8986 36.18 12.2219 36.18 12.4644 36.2629Z" fill="#16110D"/>
<path d="M14.4048 35.1012C14.6473 35.1841 14.6473 35.433 14.4048 35.5159C14.1623 35.5988 13.839 35.5988 13.6773 35.5159C13.5157 35.433 13.4348 35.1841 13.6773 35.1012C13.839 35.0183 14.2431 35.0183 14.4048 35.1012Z" fill="#16110D"/>
<path d="M16.3438 33.9395C16.5863 34.0224 16.5863 34.2712 16.3438 34.3542C16.1013 34.4371 15.778 34.4371 15.6163 34.3542C15.3738 34.2712 15.3738 34.0224 15.6163 33.9395C15.8588 33.8565 16.1822 33.8565 16.3438 33.9395C16.5863 34.1053 16.1822 33.8565 16.3438 33.9395Z" fill="#16110D"/>
<path d="M1.95909 39.7482C2.20158 39.6652 2.5249 39.6652 2.68657 39.7482C2.92906 39.8311 2.92906 40.0799 2.68657 40.1629C2.44407 40.2458 2.12075 40.2458 1.95909 40.1629C1.7166 40.0799 1.7166 39.9141 1.95909 39.7482Z" fill="#16110D"/>
<path d="M4.62604 38.5864C4.86854 38.6694 4.86854 38.9182 4.62604 39.0011C4.38355 39.0841 4.06021 39.0841 3.89854 39.0011C3.65605 38.9182 3.65605 38.6694 3.89854 38.5864C4.14104 38.5035 4.46438 38.5035 4.62604 38.5864Z" fill="#16110D"/>
<path d="M6.56547 37.4247C6.80797 37.5076 6.80797 37.7564 6.56547 37.8394C6.32298 37.9223 5.99966 37.9223 5.838 37.8394C5.5955 37.7564 5.5955 37.5076 5.838 37.4247C6.08049 37.3418 6.40381 37.3418 6.56547 37.4247Z" fill="#16110D"/>
<path d="M8.58596 36.2629C8.82846 36.3459 8.82846 36.5947 8.58596 36.6776C8.34347 36.7606 8.02015 36.7606 7.85849 36.6776C7.69683 36.5947 7.616 36.3459 7.85849 36.2629C8.10098 36.18 8.34347 36.18 8.58596 36.2629Z" fill="#16110D"/>
<path d="M10.5249 35.1012C10.7674 35.1841 10.7674 35.433 10.5249 35.5159C10.2825 35.5988 9.95913 35.5988 9.79747 35.5159C9.55498 35.433 9.55498 35.1841 9.79747 35.1012C9.95913 35.0183 10.2825 35.0183 10.5249 35.1012Z" fill="#16110D"/>
<path d="M12.4644 33.9395C12.7069 34.0224 12.7069 34.2712 12.4644 34.3542C12.2219 34.4371 11.8986 34.4371 11.7369 34.3542C11.4944 34.2712 11.4944 34.0224 11.7369 33.9395C11.8986 33.8565 12.2219 33.8565 12.4644 33.9395Z" fill="#16110D"/>
<path d="M14.4048 33.2754C14.1623 33.3583 13.839 33.3583 13.6774 33.2754C13.4349 33.1925 13.4349 32.9436 13.6774 32.8607C13.839 32.6948 14.6473 33.1095 14.4048 33.2754Z" fill="#16110D"/>
<path d="M0.0196385 38.5864C0.262132 38.5035 0.585451 38.5035 0.747113 38.5864C0.989607 38.6694 0.989607 38.9182 0.747113 39.0011C0.50462 39.0841 0.181301 39.0841 0.0196385 39.0011C-0.222855 38.9182 -0.222855 38.7523 0.0196385 38.5864Z" fill="#16110D"/>
<path d="M2.68657 37.4247C2.92906 37.5076 2.92906 37.7564 2.68657 37.8394C2.44407 37.9223 2.12075 37.9223 1.95909 37.8394C1.7166 37.7564 1.7166 37.5076 1.95909 37.4247C2.12075 37.3418 2.44407 37.3418 2.68657 37.4247Z" fill="#16110D"/>
<path d="M4.62604 36.2629C4.86854 36.3459 4.86854 36.5947 4.62604 36.6776C4.38355 36.7606 4.06021 36.7606 3.89854 36.6776C3.65605 36.5947 3.65605 36.3459 3.89854 36.2629C4.14104 36.18 4.46438 36.18 4.62604 36.2629Z" fill="#16110D"/>
<path d="M6.56521 35.1012C6.80771 35.1841 6.80771 35.433 6.56521 35.5159C6.32272 35.5988 5.9994 35.5988 5.83774 35.5159C5.67608 35.433 5.59524 35.1841 5.83774 35.1012C6.08023 35.0183 6.40355 35.0183 6.56521 35.1012Z" fill="#16110D"/>
<path d="M8.58598 33.9395C8.82847 34.0224 8.82847 34.2712 8.58598 34.3542C8.34349 34.4371 8.02017 34.4371 7.85851 34.3542C7.61601 34.2712 7.61601 34.0224 7.85851 33.9395C8.02017 33.8565 8.34349 33.8565 8.58598 33.9395Z" fill="#16110D"/>
<path d="M10.1214 33.3583C10.4339 33.3583 10.6872 33.2097 10.6872 33.0265C10.6872 32.8433 10.4339 32.6948 10.1214 32.6948C9.80888 32.6948 9.55554 32.8433 9.55554 33.0265C9.55554 33.2097 9.80888 33.3583 10.1214 33.3583Z" fill="#16110D"/>
<path d="M12.4644 32.1137C12.2219 32.1966 11.8986 32.1966 11.7369 32.1137C11.4944 32.0308 11.4944 31.782 11.7369 31.699C11.8986 31.5331 12.7069 31.9478 12.4644 32.1137Z" fill="#16110D"/>
<path d="M0.747113 36.2629C0.989607 36.3459 0.989607 36.5947 0.747113 36.6776C0.50462 36.7606 0.181301 36.7606 0.0196385 36.6776C-0.222855 36.5947 -0.222855 36.3459 0.0196385 36.2629C0.181301 36.18 0.50462 36.18 0.747113 36.2629Z" fill="#16110D"/>
<path d="M2.68657 35.1012C2.92906 35.1841 2.92906 35.433 2.68657 35.5159C2.44407 35.5988 2.12075 35.5988 1.95909 35.5159C1.7166 35.433 1.7166 35.1841 1.95909 35.1012C2.12075 35.0183 2.44407 35.0183 2.68657 35.1012Z" fill="#16110D"/>
<path d="M4.62604 33.9395C4.86854 34.0224 4.86854 34.2712 4.62604 34.3542C4.38355 34.4371 4.06021 34.4371 3.89854 34.3542C3.65605 34.2712 3.65605 34.0224 3.89854 33.9395C4.14104 33.8565 4.46438 33.8565 4.62604 33.9395Z" fill="#16110D"/>
<path d="M6.56547 32.8607C6.80797 32.9437 6.80797 33.1925 6.56547 33.2754C6.32298 33.3584 5.99966 33.3584 5.838 33.2754C5.5955 33.1925 5.5955 32.9437 5.838 32.8607C6.08049 32.6949 6.40381 32.6949 6.56547 32.8607Z" fill="#16110D"/>
<path d="M8.58598 31.699C8.82847 31.7819 8.82847 32.0307 8.58598 32.1137C8.34349 32.1966 8.02017 32.1966 7.85851 32.1137C7.61601 32.0307 7.61601 31.7819 7.85851 31.699C8.02017 31.5331 8.34349 31.5331 8.58598 31.699Z" fill="#16110D"/>
<path d="M0.747113 33.9395C0.989607 34.0224 0.989607 34.2712 0.747113 34.3542C0.50462 34.4371 0.181301 34.4371 0.0196385 34.3542C-0.222855 34.2712 -0.222855 34.0224 0.0196385 33.9395C0.181301 33.8565 0.50462 33.8565 0.747113 33.9395Z" fill="#16110D"/>
<path d="M2.68657 32.7777C2.92906 32.8607 2.92906 33.1095 2.68657 33.1924C2.44407 33.2754 2.12075 33.2754 1.95909 33.1924C1.7166 33.1095 1.7166 32.8607 1.95909 32.7777C2.12075 32.6948 2.44407 32.6948 2.68657 32.7777Z" fill="#16110D"/>
<path d="M4.62604 31.616C4.86854 31.6989 4.86854 31.9477 4.62604 32.0307C4.38355 32.1136 4.06021 32.1136 3.89854 32.0307C3.65605 31.9477 3.65605 31.6989 3.89854 31.616C4.06021 31.533 4.38355 31.533 4.62604 31.616Z" fill="#16110D"/>
<path d="M6.56547 30.4542C6.80797 30.5372 6.80797 30.786 6.56547 30.8689C6.32298 30.9519 5.99966 30.9519 5.838 30.8689C5.5955 30.786 5.5955 30.5372 5.838 30.4542C6.08049 30.3713 6.40381 30.3713 6.56547 30.4542Z" fill="#16110D"/>
<path d="M0.747113 31.616C0.989607 31.6989 0.989607 31.9477 0.747113 32.0307C0.50462 32.1136 0.181301 32.1136 0.0196385 32.0307C-0.222855 31.9477 -0.222855 31.6989 0.0196385 31.616C0.181301 31.533 0.50462 31.533 0.747113 31.616Z" fill="#16110D"/>
<path d="M2.68657 30.4542C2.92906 30.5372 2.92906 30.786 2.68657 30.8689C2.44407 30.9519 2.12075 30.9519 1.95909 30.8689C1.7166 30.786 1.7166 30.5372 1.95909 30.4542C2.12075 30.3713 2.44407 30.3713 2.68657 30.4542Z" fill="#16110D"/>
<path d="M4.62604 29.2925C4.86854 29.3754 4.86854 29.6242 4.62604 29.7072C4.38355 29.7901 4.06021 29.7901 3.89854 29.7072C3.65605 29.6242 3.65605 29.3754 3.89854 29.2925C4.06021 29.2096 4.38355 29.2096 4.62604 29.2925Z" fill="#16110D"/>
<path d="M0.747113 29.2925C0.989607 29.3754 0.989607 29.6242 0.747113 29.7072C0.50462 29.7901 0.181301 29.7901 0.0196385 29.7072C-0.222855 29.6242 -0.222855 29.3754 0.0196385 29.2925C0.262132 29.2096 0.50462 29.2096 0.747113 29.2925Z" fill="#16110D"/>
<path d="M2.68657 28.2137C2.92906 28.2966 2.92906 28.5455 2.68657 28.6284C2.44407 28.7113 2.12075 28.7113 1.95909 28.6284C1.7166 28.5455 1.7166 28.2966 1.95909 28.2137C2.12075 28.0478 2.44407 28.0478 2.68657 28.2137Z" fill="#16110D"/>
<path d="M0.747113 27.052C0.989607 27.1349 0.989607 27.3837 0.747113 27.4667C0.50462 27.5496 0.181301 27.5496 0.0196385 27.4667C-0.222855 27.3837 -0.222855 27.1349 0.0196385 27.052C0.181301 26.8861 0.50462 26.8861 0.747113 27.052C0.908776 27.1349 0.50462 26.8861 0.747113 27.052Z" fill="#16110D"/>
<path d="M35.98 43.0675C36.2225 43.1504 36.2225 43.3992 35.98 43.4821C35.7375 43.5651 35.4142 43.5651 35.2525 43.4821C35.0101 43.3992 35.0101 43.1504 35.2525 43.0675C35.495 42.9845 35.8184 42.9845 35.98 43.0675Z" fill="#16110D"/>
<path d="M37.919 41.9056C38.1615 41.9886 38.1615 42.2374 37.919 42.3203C37.6765 42.4033 37.3532 42.4033 37.1915 42.3203C36.949 42.2374 36.949 41.9886 37.1915 41.9056C37.434 41.8227 37.7573 41.8227 37.919 41.9056Z" fill="#16110D"/>
<path d="M39.94 40.7439C40.1825 40.8268 40.1825 41.0757 39.94 41.1586C39.6975 41.2415 39.3742 41.2415 39.2125 41.1586C39.0508 41.0757 38.97 40.8268 39.2125 40.7439C39.3742 40.661 39.6975 40.661 39.94 40.7439Z" fill="#16110D"/>
<path d="M41.8794 39.5822C42.1219 39.6652 42.1219 39.914 41.8794 39.9969C41.6369 40.0799 41.3136 40.0799 41.152 39.9969C40.9095 39.914 40.9095 39.6652 41.152 39.5822C41.3136 39.4993 41.6369 39.4993 41.8794 39.5822Z" fill="#16110D"/>
<path d="M43.8179 38.4205C44.0604 38.5034 44.0604 38.7522 43.8179 38.8352C43.5754 38.9181 43.2521 38.9181 43.0904 38.8352C42.8479 38.7522 42.8479 38.5034 43.0904 38.4205C43.2521 38.3375 43.5754 38.3375 43.8179 38.4205Z" fill="#16110D"/>
<path d="M32.1016 43.0675C32.3441 43.1504 32.3441 43.3992 32.1016 43.4821C31.8591 43.5651 31.5358 43.5651 31.3741 43.4821C31.1316 43.3992 31.1316 43.1504 31.3741 43.0675C31.5358 42.9845 31.8591 42.9845 32.1016 43.0675Z" fill="#16110D"/>
<path d="M34.0406 41.9056C34.2831 41.9886 34.2831 42.2374 34.0406 42.3203C33.7981 42.4033 33.4748 42.4033 33.3131 42.3203C33.0706 42.2374 33.0706 41.9886 33.3131 41.9056C33.4748 41.8227 33.8789 41.8227 34.0406 41.9056Z" fill="#16110D"/>
<path d="M35.6565 41.3246C35.969 41.3246 36.2223 41.1761 36.2223 40.9928C36.2223 40.8096 35.969 40.6611 35.6565 40.6611C35.344 40.6611 35.0907 40.8096 35.0907 40.9928C35.0907 41.1761 35.344 41.3246 35.6565 41.3246Z" fill="#16110D"/>
<path d="M37.919 39.5822C38.1615 39.6652 38.1615 39.914 37.919 39.9969C37.6765 40.0799 37.3532 40.0799 37.1915 39.9969C36.949 39.914 36.949 39.6652 37.1915 39.5822C37.434 39.4993 37.7573 39.4993 37.919 39.5822Z" fill="#16110D"/>
<path d="M39.5354 39.001C39.8479 39.001 40.1012 38.8525 40.1012 38.6693C40.1012 38.4861 39.8479 38.3375 39.5354 38.3375C39.2229 38.3375 38.9696 38.4861 38.9696 38.6693C38.9696 38.8525 39.2229 39.001 39.5354 39.001Z" fill="#16110D"/>
<path d="M41.8794 37.2587C42.1219 37.3417 42.1219 37.5905 41.8794 37.6734C41.6369 37.7564 41.3136 37.7564 41.152 37.6734C40.9095 37.5905 40.9095 37.3417 41.152 37.2587C41.3136 37.1758 41.6369 37.1758 41.8794 37.2587Z" fill="#16110D"/>
<path d="M43.8179 36.097C44.0604 36.1799 44.0604 36.4287 43.8179 36.5117C43.5754 36.5946 43.2521 36.5946 43.0904 36.5117C42.9288 36.4287 42.8479 36.1799 43.0904 36.097C43.2521 36.0141 43.5754 36.0141 43.8179 36.097Z" fill="#16110D"/>
<path d="M28.2222 43.0675C28.4647 43.1504 28.4647 43.3992 28.2222 43.4821C27.9797 43.5651 27.6564 43.5651 27.4947 43.4821C27.2522 43.3992 27.2522 43.1504 27.4947 43.0675C27.6564 42.9845 27.9797 42.9845 28.2222 43.0675Z" fill="#16110D"/>
<path d="M30.1617 41.9056C30.4042 41.9886 30.4042 42.2374 30.1617 42.3203C29.9192 42.4033 29.5959 42.4033 29.4342 42.3203C29.1917 42.2374 29.1917 41.9886 29.4342 41.9056C29.5959 41.8227 29.9192 41.8227 30.1617 41.9056Z" fill="#16110D"/>
<path d="M32.1016 40.7439C32.3441 40.8268 32.3441 41.0757 32.1016 41.1586C31.8591 41.2415 31.5358 41.2415 31.3741 41.1586C31.1316 41.0757 31.1316 40.8268 31.3741 40.7439C31.5358 40.661 31.8591 40.661 32.1016 40.7439Z" fill="#16110D"/>
<path d="M34.0406 39.5822C34.2831 39.6652 34.2831 39.914 34.0406 39.9969C33.7981 40.0799 33.4748 40.0799 33.3131 39.9969C33.0706 39.914 33.0706 39.6652 33.3131 39.5822C33.5556 39.4993 33.8789 39.4993 34.0406 39.5822Z" fill="#16110D"/>
<path d="M35.6565 39.001C35.969 39.001 36.2223 38.8525 36.2223 38.6693C36.2223 38.4861 35.969 38.3375 35.6565 38.3375C35.344 38.3375 35.0907 38.4861 35.0907 38.6693C35.0907 38.8525 35.344 39.001 35.6565 39.001Z" fill="#16110D"/>
<path d="M37.919 37.2587C38.1615 37.3417 38.1615 37.5905 37.919 37.6734C37.6765 37.7564 37.3532 37.7564 37.1915 37.6734C36.949 37.5905 36.949 37.3417 37.1915 37.2587C37.434 37.1758 37.7573 37.1758 37.919 37.2587Z" fill="#16110D"/>
<path d="M39.94 36.097C40.1825 36.1799 40.1825 36.4287 39.94 36.5117C39.6975 36.5946 39.3742 36.5946 39.2125 36.5117C38.97 36.4287 38.97 36.1799 39.2125 36.097C39.3742 36.0141 39.6975 36.0141 39.94 36.097Z" fill="#16110D"/>
<path d="M41.4749 35.5158C41.7874 35.5158 42.0407 35.3673 42.0407 35.1841C42.0407 35.0008 41.7874 34.8523 41.4749 34.8523C41.1624 34.8523 40.9091 35.0008 40.9091 35.1841C40.9091 35.3673 41.1624 35.5158 41.4749 35.5158Z" fill="#16110D"/>
<path d="M43.4143 34.3541C43.7268 34.3541 43.9801 34.2055 43.9801 34.0223C43.9801 33.8391 43.7268 33.6906 43.4143 33.6906C43.1018 33.6906 42.8485 33.8391 42.8485 34.0223C42.8485 34.2055 43.1018 34.3541 43.4143 34.3541Z" fill="#16110D"/>
<path d="M24.2623 43.0675C24.5047 43.1504 24.5047 43.3992 24.2623 43.4821C24.0198 43.5651 23.6964 43.5651 23.5348 43.4821C23.2923 43.3992 23.2923 43.1504 23.5348 43.0675C23.7773 42.9845 24.1006 42.9845 24.2623 43.0675Z" fill="#16110D"/>
<path d="M26.2022 41.9056C26.4447 41.9886 26.4447 42.2374 26.2022 42.3203C25.9597 42.4033 25.6364 42.4033 25.4747 42.3203C25.2322 42.2374 25.2322 41.9886 25.4747 41.9056C25.7172 41.8227 26.0405 41.8227 26.2022 41.9056Z" fill="#16110D"/>
<path d="M28.2222 40.7439C28.4647 40.8268 28.4647 41.0757 28.2222 41.1586C27.9797 41.2415 27.6564 41.2415 27.4947 41.1586C27.2522 41.0757 27.2522 40.8268 27.4947 40.7439C27.7372 40.661 27.9797 40.661 28.2222 40.7439Z" fill="#16110D"/>
<path d="M30.1617 39.5822C30.4042 39.6652 30.4042 39.914 30.1617 39.9969C29.9192 40.0799 29.5959 40.0799 29.4342 39.9969C29.1917 39.914 29.1917 39.6652 29.4342 39.5822C29.5959 39.4993 29.9192 39.4993 30.1617 39.5822Z" fill="#16110D"/>
<path d="M32.1016 38.4205C32.3441 38.5034 32.3441 38.7522 32.1016 38.8352C31.8591 38.9181 31.5358 38.9181 31.3741 38.8352C31.1316 38.7522 31.1316 38.5034 31.3741 38.4205C31.5358 38.3375 31.8591 38.3375 32.1016 38.4205Z" fill="#16110D"/>
<path d="M34.0406 37.2587C34.2831 37.3417 34.2831 37.5905 34.0406 37.6734C33.7981 37.7564 33.4748 37.7564 33.3131 37.6734C33.0706 37.5905 33.0706 37.3417 33.3131 37.2587C33.4748 37.1758 33.8789 37.1758 34.0406 37.2587Z" fill="#16110D"/>
<path d="M35.98 36.097C36.2225 36.1799 36.2225 36.4287 35.98 36.5117C35.7375 36.5946 35.4142 36.5946 35.2525 36.5117C35.0101 36.4287 35.0101 36.1799 35.2525 36.097C35.495 36.0141 35.8184 36.0141 35.98 36.097Z" fill="#16110D"/>
<path d="M37.919 34.9353C38.1615 35.0182 38.1615 35.267 37.919 35.3499C37.6765 35.4329 37.3532 35.4329 37.1915 35.3499C36.949 35.267 36.949 35.0182 37.1915 34.9353C37.434 34.8523 37.7573 34.8523 37.919 34.9353Z" fill="#16110D"/>
<path d="M39.94 33.7735C40.1825 33.8564 40.1825 34.1053 39.94 34.1882C39.6975 34.2711 39.3742 34.2711 39.2125 34.1882C38.97 34.1053 38.97 33.8564 39.2125 33.7735C39.3742 33.6906 39.6975 33.6906 39.94 33.7735Z" fill="#16110D"/>
<path d="M41.8794 32.6118C42.1219 32.6947 42.1219 32.9435 41.8794 33.0265C41.6369 33.1094 41.3136 33.1094 41.152 33.0265C40.9095 32.9435 40.9095 32.6947 41.152 32.6118C41.3945 32.5288 41.6369 32.5288 41.8794 32.6118Z" fill="#16110D"/>
<path d="M19.9798 43.648C20.2923 43.648 20.5456 43.4995 20.5456 43.3163C20.5456 43.133 20.2923 42.9845 19.9798 42.9845C19.6673 42.9845 19.4139 43.133 19.4139 43.3163C19.4139 43.4995 19.6673 43.648 19.9798 43.648Z" fill="#16110D"/>
<path d="M22.3228 41.9057C22.5653 41.9886 22.5653 42.2374 22.3228 42.3204C22.0803 42.4033 21.757 42.4033 21.5953 42.3204C21.4336 42.2374 21.3528 41.9886 21.5953 41.9057C21.757 41.7398 22.0803 41.7398 22.3228 41.9057Z" fill="#16110D"/>
<path d="M24.2623 40.7439C24.5047 40.8268 24.5047 41.0757 24.2623 41.1586C24.0198 41.2415 23.6964 41.2415 23.5348 41.1586C23.2923 41.0757 23.2923 40.8268 23.5348 40.7439C23.6964 40.661 24.0198 40.661 24.2623 40.7439Z" fill="#16110D"/>
<path d="M26.2022 39.5822C26.4447 39.6652 26.4447 39.914 26.2022 39.9969C25.9597 40.0799 25.6364 40.0799 25.4747 39.9969C25.2322 39.914 25.2322 39.6652 25.4747 39.5822C25.6364 39.4993 26.0405 39.4993 26.2022 39.5822Z" fill="#16110D"/>
<path d="M28.1416 38.4205C28.3841 38.5034 28.3841 38.7522 28.1416 38.8352C27.8992 38.9181 27.5758 38.9181 27.4142 38.8352C27.1717 38.7522 27.1717 38.5034 27.4142 38.4205C27.6567 38.3375 27.98 38.3375 28.1416 38.4205Z" fill="#16110D"/>
<path d="M30.1617 37.2587C30.4042 37.3417 30.4042 37.5905 30.1617 37.6734C29.9192 37.7564 29.5959 37.7564 29.4342 37.6734C29.1917 37.5905 29.1917 37.3417 29.4342 37.2587C29.5959 37.1758 29.9192 37.1758 30.1617 37.2587Z" fill="#16110D"/>
<path d="M32.1016 36.097C32.3441 36.1799 32.3441 36.4287 32.1016 36.5117C31.8591 36.5946 31.5358 36.5946 31.3741 36.5117C31.1316 36.4287 31.1316 36.1799 31.3741 36.097C31.5358 36.0141 31.8591 36.0141 32.1016 36.097Z" fill="#16110D"/>
<path d="M34.0406 34.9353C34.2831 35.0182 34.2831 35.267 34.0406 35.3499C33.7981 35.4329 33.4748 35.4329 33.3131 35.3499C33.0706 35.267 33.0706 35.0182 33.3131 34.9353C33.4748 34.8523 33.7981 34.8523 34.0406 34.9353Z" fill="#16110D"/>
<path d="M35.98 33.7735C36.2225 33.8564 36.2225 34.1053 35.98 34.1882C35.7375 34.2711 35.4142 34.2711 35.2525 34.1882C35.0101 34.1053 35.0101 33.8564 35.2525 33.7735C35.4142 33.6906 35.8184 33.6906 35.98 33.7735Z" fill="#16110D"/>
<path d="M37.919 32.6118C38.1615 32.6947 38.1615 32.9435 37.919 33.0265C37.6765 33.1094 37.3532 33.1094 37.1915 33.0265C36.949 32.9435 36.949 32.6947 37.1915 32.6118C37.434 32.5288 37.7573 32.5288 37.919 32.6118Z" fill="#16110D"/>
<path d="M39.1319 31.45C39.3744 31.3671 39.6977 31.3671 39.8593 31.45C40.1018 31.533 40.1018 31.7818 39.8593 31.8647C39.6168 31.9477 39.2935 31.9477 39.1319 31.8647C38.9702 31.7818 38.9702 31.6159 39.1319 31.45C39.2935 31.2841 38.9702 31.6159 39.1319 31.45Z" fill="#16110D"/>
<path d="M16.4244 43.0674C16.6669 43.1503 16.6669 43.3992 16.4244 43.4821C16.1819 43.565 15.8585 43.565 15.6969 43.4821C15.4544 43.3992 15.4544 43.1503 15.6969 43.0674C15.9394 42.9015 16.2627 42.9015 16.4244 43.0674Z" fill="#16110D"/>
<path d="M18.3633 41.9057C18.6058 41.9886 18.6058 42.2374 18.3633 42.3204C18.1209 42.4033 17.7975 42.4033 17.6358 42.3204C17.3934 42.2374 17.3934 41.9886 17.6358 41.9057C17.8783 41.7398 18.2017 41.7398 18.3633 41.9057Z" fill="#16110D"/>
<path d="M19.9798 41.3246C20.2923 41.3246 20.5456 41.1761 20.5456 40.9928C20.5456 40.8096 20.2923 40.6611 19.9798 40.6611C19.6673 40.6611 19.4139 40.8096 19.4139 40.9928C19.4139 41.1761 19.6673 41.3246 19.9798 41.3246Z" fill="#16110D"/>
<path d="M22.3233 39.5822C22.5658 39.6652 22.5658 39.914 22.3233 39.9969C22.0808 40.0799 21.7575 40.0799 21.5958 39.9969C21.3533 39.914 21.3533 39.6652 21.5958 39.5822C21.7575 39.4993 22.0808 39.4993 22.3233 39.5822Z" fill="#16110D"/>
<path d="M23.8587 39.001C24.1712 39.001 24.4245 38.8525 24.4245 38.6693C24.4245 38.4861 24.1712 38.3375 23.8587 38.3375C23.5462 38.3375 23.2928 38.4861 23.2928 38.6693C23.2928 38.8525 23.5462 39.001 23.8587 39.001Z" fill="#16110D"/>
<path d="M26.2022 37.2587C26.4447 37.3417 26.4447 37.5905 26.2022 37.6734C25.9597 37.7564 25.6364 37.7564 25.4747 37.6734C25.2322 37.5905 25.2322 37.3417 25.4747 37.2587C25.6364 37.1758 26.0405 37.1758 26.2022 37.2587Z" fill="#16110D"/>
<path d="M28.1416 36.097C28.3841 36.1799 28.3841 36.4287 28.1416 36.5117C27.8992 36.5946 27.5758 36.5946 27.4142 36.5117C27.1717 36.4287 27.1717 36.1799 27.4142 36.097C27.6567 36.0141 27.98 36.0141 28.1416 36.097Z" fill="#16110D"/>
<path d="M12.5455 43.0674C12.7879 43.1503 12.7879 43.3992 12.5455 43.4821C12.303 43.565 11.9796 43.565 11.818 43.4821C11.5755 43.3992 11.5755 43.1503 11.818 43.0674C11.9796 42.9015 12.303 42.9015 12.5455 43.0674Z" fill="#16110D"/>
<path d="M14.4854 41.9057C14.7279 41.9886 14.7279 42.2374 14.4854 42.3204C14.2429 42.4033 13.9196 42.4033 13.7579 42.3204C13.5154 42.2374 13.5154 41.9886 13.7579 41.9057C13.9196 41.7398 14.3237 41.7398 14.4854 41.9057Z" fill="#16110D"/>
<path d="M16.4244 40.7439C16.6669 40.8268 16.6669 41.0757 16.4244 41.1586C16.1819 41.2415 15.8585 41.2415 15.6969 41.1586C15.4544 41.0757 15.4544 40.8268 15.6969 40.7439C15.9394 40.661 16.2627 40.661 16.4244 40.7439Z" fill="#16110D"/>
<path d="M18.3633 39.5822C18.6058 39.6652 18.6058 39.914 18.3633 39.9969C18.1209 40.0799 17.7975 40.0799 17.6358 39.9969C17.3934 39.914 17.3934 39.6652 17.6358 39.5822C17.8783 39.4993 18.2017 39.4993 18.3633 39.5822Z" fill="#16110D"/>
<path d="M20.3848 38.4205C20.6273 38.5034 20.6273 38.7522 20.3848 38.8352C20.1423 38.9181 19.819 38.9181 19.6573 38.8352C19.4148 38.7522 19.4148 38.5034 19.6573 38.4205C19.819 38.3375 20.1423 38.3375 20.3848 38.4205Z" fill="#16110D"/>
<path d="M22.3233 37.2587C22.5658 37.3417 22.5658 37.5905 22.3233 37.6734C22.0808 37.7564 21.7575 37.7564 21.5958 37.6734C21.3533 37.5905 21.3533 37.3417 21.5958 37.2587C21.7575 37.1758 22.0808 37.1758 22.3233 37.2587Z" fill="#16110D"/>
<path d="M7.85892 43.0675C8.10141 42.9845 8.42473 42.9845 8.58639 43.0675C8.82889 43.1504 8.82889 43.3992 8.58639 43.4821C8.3439 43.5651 8.02058 43.5651 7.85892 43.4821C7.69726 43.3992 7.69726 43.1504 7.85892 43.0675Z" fill="#16110D"/>
<path d="M10.606 41.9057C10.8485 41.9886 10.8485 42.2374 10.606 42.3204C10.3635 42.4033 10.0402 42.4033 9.87853 42.3204C9.63603 42.2374 9.63603 41.9886 9.87853 41.9057C10.0402 41.7398 10.3635 41.7398 10.606 41.9057Z" fill="#16110D"/>
<path d="M12.5455 40.7439C12.7879 40.8268 12.7879 41.0757 12.5455 41.1586C12.303 41.2415 11.9796 41.2415 11.818 41.1586C11.5755 41.0757 11.5755 40.8268 11.818 40.7439C11.9796 40.661 12.303 40.661 12.5455 40.7439Z" fill="#16110D"/>
<path d="M14.4854 39.5822C14.7279 39.6652 14.7279 39.914 14.4854 39.9969C14.2429 40.0799 13.9196 40.0799 13.7579 39.9969C13.5154 39.914 13.5154 39.6652 13.7579 39.5822C13.9196 39.4993 14.3237 39.4993 14.4854 39.5822Z" fill="#16110D"/>
<path d="M16.1013 39.001C16.4138 39.001 16.6672 38.8525 16.6672 38.6693C16.6672 38.4861 16.4138 38.3375 16.1013 38.3375C15.7888 38.3375 15.5355 38.4861 15.5355 38.6693C15.5355 38.8525 15.7888 39.001 16.1013 39.001Z" fill="#16110D"/>
<path d="M18.3633 37.2587C18.6058 37.3417 18.6058 37.5905 18.3633 37.6734C18.1209 37.7564 17.7975 37.7564 17.6358 37.6734C17.3934 37.5905 17.3934 37.3417 17.6358 37.2587C17.8783 37.1758 18.2017 37.1758 18.3633 37.2587Z" fill="#16110D"/>
<path d="M19.9798 36.6776C20.2923 36.6776 20.5456 36.529 20.5456 36.3458C20.5456 36.1626 20.2923 36.014 19.9798 36.014C19.6673 36.014 19.4139 36.1626 19.4139 36.3458C19.4139 36.529 19.6673 36.6776 19.9798 36.6776Z" fill="#16110D"/>
<path d="M5.5968 14.5217V16.2643L36.3848 34.4373V32.7777L5.5968 14.5217Z" fill="#FFBE2E"/>
<path d="M36.386 32.7782L5.59802 14.5223L9.31522 12.3647L40.1032 30.5377L36.386 32.7782Z" fill="#FFBE2E"/>
<path d="M36.3846 32.7772L6.24304 14.8532L9.31375 13.0276L39.5361 30.9516L36.3846 32.7772Z" fill="#FFEECC"/>
<path d="M40.3437 30.7032V30.4542L40.1013 30.2883L9.47487 12.1153L9.39406 12.0323L5.67686 14.1898L5.43445 14.3558V14.6047V16.3473L36.2224 34.5203L36.4649 34.6863L36.7073 34.5203L40.4245 32.3628V30.7032H40.3437ZM39.6164 30.5372L38.7275 31.0351L36.3841 32.4458L25.4749 25.9732L6.08091 14.4388L9.31324 12.5302L39.6164 30.5372ZM5.83849 16.0984V14.8537L36.1417 32.8607V34.0224L5.83849 16.0984Z" fill="#16110D"/>
<path d="M0.58728 17.2602V19.0028L31.3753 37.2588V35.5162L0.58728 17.2602Z" fill="#FFBE2E"/>
<path d="M31.3743 35.5167L0.586304 17.2607L4.30347 15.1032L35.0915 33.3592L31.3743 35.5167Z" fill="#FFBE2E"/>
<path d="M31.3743 35.5157L1.23279 17.6746L4.3035 15.849L34.5259 33.773L31.3743 35.5157Z" fill="#FFEECC"/>
<path d="M35.2519 33.4416V33.1927L35.0095 33.0267L4.38307 14.8537L4.30226 14.7708L0.585091 16.9283L0.342651 17.0942V17.3432V19.0858L31.1307 37.3418L31.3731 37.5077L31.6155 37.3418L35.3327 35.1842V33.4416H35.2519ZM34.6054 33.3586L33.7166 33.8565L31.3731 35.2672L20.4639 28.7947L1.06992 17.2602L4.30226 15.3516L34.6054 33.3586ZM0.827507 18.9198V17.6751L31.1307 35.6821V36.8439L0.827507 18.9198Z" fill="#16110D"/>
<path d="M-4.42322 20.2476V21.9902L26.3648 40.1632V38.5035L-4.42322 20.2476Z" fill="#FFBE2E"/>
<path d="M26.3653 38.504L-4.42273 20.248L-0.705536 18.0905L30.0017 36.3465L26.3653 38.504Z" fill="#FFBE2E"/>
<path d="M26.3636 38.503L-3.77795 20.6619L-0.707218 18.8363L29.5151 36.7603L26.3636 38.503Z" fill="#FFEECC"/>
<path d="M30.2426 36.429V36.18L30.0002 36.0141L-0.626204 17.8411L-0.707017 17.7581L-4.42421 19.9156L-4.66663 20.0816V20.3305V22.0732L26.1214 40.2461L26.3638 40.4121L26.6062 40.2461L30.3234 38.0886V36.429H30.2426ZM29.5962 36.346L28.7073 36.8439L26.3638 38.2546L15.4547 31.782L-3.93935 20.2476L-0.707017 18.339L29.5962 36.346ZM-4.1818 21.9072V20.6625L26.1214 38.6695V39.8312L-4.1818 21.9072Z" fill="#16110D"/>
<path d="M-9.43323 23.2349V24.9775L21.3548 43.2334V41.4908L-9.43323 23.2349Z" fill="#FFBE2E"/>
<path d="M21.3553 41.4914L-9.43274 23.2354L-5.79636 21.0779L24.9917 39.3338L21.3553 41.4914Z" fill="#FFBE2E"/>
<path d="M21.3538 41.4903L-8.86853 23.6492L-5.79782 21.8236L24.5053 39.7476L21.3538 41.4903Z" fill="#FFEECC"/>
<path d="M25.2329 39.4163V39.1674L24.9904 39.0014L-5.63597 20.8284L-5.71678 20.7454L-9.43398 22.9029L-9.67639 23.0689V23.3179V25.0605L21.1116 43.2334L21.354 43.3994L21.5965 43.2334L25.3137 41.0759V39.4163H25.2329ZM24.5864 39.3333L23.6975 39.8312L21.354 41.2419L10.4449 34.7693L-8.94912 23.2349L-5.71678 21.3263L24.5864 39.3333ZM-9.19154 24.8945V23.6498L21.1116 41.6568V42.8185L-9.19154 24.8945Z" fill="#16110D"/>
<path d="M5.5968 8.96204V10.7876L36.3848 28.9606V27.218L5.5968 8.96204Z" fill="#FFBE2E"/>
<path d="M36.386 27.2184L5.59802 8.9624L9.31522 6.80487L40.1032 25.0608L36.386 27.2184Z" fill="#FFBE2E"/>
<path d="M36.3846 27.2175L6.24304 9.37644L9.31375 7.55084L39.5361 25.4749L36.3846 27.2175Z" fill="#FFEECC"/>
<path d="M40.3437 25.2264V24.9775L40.1013 24.8115L9.47487 6.63852L9.39406 6.55554L5.67686 8.71306L5.43445 8.87903V9.12797V10.8706L36.2224 29.0436L36.4649 29.2095L36.7073 29.0436L40.4245 26.886V25.2264H40.3437ZM39.6164 25.0605L38.7275 25.5583L36.3841 26.969L25.4749 20.4965L6.08091 8.96201L9.31324 7.05343L39.6164 25.0605ZM5.83849 10.6216V9.37692L36.1417 27.3839V28.5457L5.83849 10.6216Z" fill="#16110D"/>
<path d="M0.58728 11.7834V13.526L31.3753 31.699V30.0394L0.58728 11.7834Z" fill="#FFBE2E"/>
<path d="M31.3743 30.0397L0.586304 11.7837L4.30347 9.54321L35.0915 27.7992L31.3743 30.0397Z" fill="#FFBE2E"/>
<path d="M31.3743 30.0388L1.23279 12.1147L4.3035 10.2891L34.5259 28.2132L31.3743 30.0388Z" fill="#FFEECC"/>
<path d="M35.2519 27.9648V27.7159L35.0095 27.5499L4.38307 9.37693L4.30226 9.29395L0.585091 11.4515L0.342651 11.6174V11.8664V13.609L31.1307 31.865L31.3731 32.0309L31.6155 31.865L35.3327 29.7074V27.9648H35.2519ZM34.6054 27.7989L33.7166 28.2967L31.3731 29.7074L20.4639 23.2349L1.06992 11.7004L4.30226 9.79184L34.6054 27.7989ZM0.827507 13.36V12.1153L31.1307 30.1223V31.2841L0.827507 13.36Z" fill="#16110D"/>
<path d="M-4.42322 14.7708V16.5134L26.3648 34.6863V33.0267L-4.42322 14.7708Z" fill="#FFBE2E"/>
<path d="M26.3653 33.0271L-4.42273 14.7711L-0.705536 12.5306L30.0017 30.7866L26.3653 33.0271Z" fill="#FFBE2E"/>
<path d="M26.3636 33.0262L-3.77795 15.1022L-0.707218 13.2766L29.5151 31.2006L26.3636 33.0262Z" fill="#FFEECC"/>
<path d="M30.2426 30.9522V30.7032L30.0002 30.5373L-0.626204 12.3643L-0.707017 12.2813L-4.42421 14.4388L-4.66663 14.6048V14.8537V16.5964L26.1214 34.7693L26.3638 34.9353L26.6062 34.7693L30.3234 32.6118V30.9522H30.2426ZM29.5962 30.7862L28.7073 31.2841L26.3638 32.6948L15.4547 26.2222L-3.93935 14.6878L-0.707017 12.7792L29.5962 30.7862ZM-4.1818 16.3474V15.1027L26.1214 33.1097V34.2714L-4.1818 16.3474Z" fill="#16110D"/>
<path d="M-9.43323 17.7581V19.5007L21.3548 37.6737V36.0141L-9.43323 17.7581Z" fill="#FFBE2E"/>
<path d="M21.3553 36.0145L-9.43274 17.7585L-5.79636 15.601L24.9917 33.774L21.3553 36.0145Z" fill="#FFBE2E"/>
<path d="M21.3538 36.0135L-8.86853 18.0895L-5.79782 16.2639L24.5053 34.1879L21.3538 36.0135Z" fill="#FFEECC"/>
<path d="M25.2329 33.9395V33.6906L24.9904 33.5246L-5.63597 15.3517L-5.71678 15.2687L-9.43398 17.4262L-9.67639 17.5922V17.8411V19.5837L21.1116 37.7567L21.354 37.9227L21.5965 37.7567L25.3137 35.5992V33.9395H25.2329ZM24.5864 33.7736L23.6975 34.2715L21.354 35.6822L10.4449 29.2096L-8.94912 17.6751L-5.71678 15.7666L24.5864 33.7736ZM-9.19154 19.3348V18.0901L21.1116 36.0971V37.2588L-9.19154 19.3348Z" fill="#16110D"/>
<path d="M13.0306 36.5949V32.7777L17.6367 35.5161V39.3333L13.0306 36.5949Z" fill="#FFBE2E"/>
<path d="M20.8673 37.4247L17.8774 35.6821V35.4331L12.7865 32.3628V36.7608L17.8774 39.7482V39.2503L20.8673 37.4247ZM17.3926 38.9183L13.1905 36.4289V33.1096L17.3926 35.5991V38.9183Z" fill="#16110D"/>
<path d="M1.7172 26.0562L-1.27272 24.3136V24.1476L-6.36365 21.0773V25.3093L-1.27272 28.3797V27.8818L1.7172 26.0562ZM-1.75758 27.5498L-5.95961 25.0604V21.8241L-1.75758 24.3136V27.5498Z" fill="#16110D"/>
<path d="M3.17151 30.7032V26.9691L7.85841 29.7904V33.5246L3.17151 30.7032Z" fill="#FFBE2E"/>
<path d="M11.0915 31.616L8.10154 29.8734V29.7074L3.01062 26.6371V30.8692L8.10154 33.9395V33.4416L11.0915 31.616ZM7.61669 33.1097L3.41466 30.6202V27.3839L7.61669 29.8734V33.1097Z" fill="#16110D"/>
<path d="M7.61734 21.8241L-0.948364 16.7623V6.63849L7.61734 11.7004V21.8241Z" fill="#FFBE2E"/>
<path d="M16.1843 6.63884L7.61856 11.7007L-0.947144 6.63884L7.61856 1.57697L16.1843 6.63884Z" fill="#FFBE2E"/>
<path d="M16.1819 8.38012L9.15151 12.5292L0.666626 7.46732L7.61616 3.31824L16.1819 8.38012Z" fill="#FFEECC"/>
<path d="M7.61634 1.3277L-0.949357 6.38958L-1.19177 6.55554V16.9283L7.37393 21.9901L7.61634 22.1561L7.85878 21.9901L16.4245 16.9283V6.80449V6.47256L7.61634 1.3277ZM7.61634 1.90857L15.6972 6.63852L11.6568 9.04499L7.61634 11.4515L6.3234 10.7046L-0.464501 6.72151L7.61634 1.90857ZM-0.706917 16.5963V7.13641L7.37393 11.8664V21.4093L-0.706917 16.5963Z" fill="#16110D"/>
<path d="M34.6077 8.54758L20.7894 0.332397L6.89038 8.54758V25.0609L20.7894 33.2761V16.8457L34.6077 8.54758Z" fill="#FFEECC"/>
<path d="M6.88843 24.9775L20.7875 33.1927V16.7623L6.88843 8.54712V24.9775Z" fill="#FFBE2E"/>
<path d="M34.9299 8.38115L20.7885 0L6.64698 8.38115H6.56616V8.71307V25.2264L20.4652 33.4416L20.7076 33.6076L20.9501 33.4416L34.6875 25.3094L34.8491 25.2264V8.71307L34.9299 8.38115ZM20.7885 0.663856L27.3339 4.56399L14.0005 12.4472L7.45506 8.54711L20.7885 0.663856ZM20.4652 32.7778L7.13181 24.8945V9.12798L20.4652 17.0112V32.7778ZM26.445 13.1111L20.7885 16.4304L14.243 12.5302L27.5764 4.64698L34.1218 8.54711L26.445 13.1111Z" fill="#16110D"/>
<path d="M15.2924 16.8453L12.7065 15.3516C12.3833 15.1856 12.1409 15.1856 11.8984 15.2686C11.656 15.4346 11.4944 15.7665 11.4944 16.1814C11.4944 16.9283 11.8984 17.6751 12.4641 18.007L15.05 19.5007C15.2116 19.5837 15.3732 19.6666 15.5348 19.6666C15.6964 19.6666 15.7772 19.6666 15.858 19.5837C16.1005 19.4177 16.2621 19.0858 16.2621 18.6709C16.1813 17.924 15.7772 17.1772 15.2924 16.8453ZM15.5348 19.0858C15.454 19.1688 15.3732 19.0858 15.2924 19.0028L12.7065 17.5091C12.3025 17.2602 12.06 16.6793 12.06 16.1814C12.06 15.9325 12.1408 15.7665 12.2217 15.7665C12.3025 15.6835 12.3833 15.7665 12.4641 15.8495L12.6257 15.9325C12.7065 16.5133 13.0297 17.1772 13.5146 17.4261L15.6964 18.7538C15.6156 18.9198 15.5348 19.0858 15.5348 19.0858Z" fill="#16110D"/>
<path d="M4.46572 50.3699L-4.09998 45.308V35.1013L4.46572 40.1631V50.3699Z" fill="#FFBE2E"/>
<path d="M13.0319 35.1016L4.46621 40.1635L-4.09949 35.1016L4.46621 30.0397L13.0319 35.1016Z" fill="#FFBE2E"/>
<path d="M13.03 36.9258L5.99966 40.9919L-2.56604 35.93L4.4643 31.8639L13.03 36.9258Z" fill="#FFEECC"/>
<path d="M4.46449 29.7904L-4.10121 34.8523L-4.34363 35.0183V45.4739L4.22207 50.5358L4.46449 50.7018L4.7069 50.5358L13.2726 45.4739V35.2672V34.9353L4.46449 29.7904ZM4.46449 30.3713L12.5453 35.1012L8.50491 37.5077L4.46449 39.9142L3.17155 39.1673L-3.61636 35.1842L4.46449 30.3713ZM-3.85877 45.142V35.5991L4.22207 40.3291V49.872L-3.85877 45.142Z" fill="#16110D"/>
<path d="M2.36447 47.2996L1.07087 46.5527C0.828325 46.4697 0.666626 46.1378 0.666626 45.8059V44.3952C0.666626 44.1463 0.828325 43.9803 1.07087 44.0633L2.36447 44.8101C2.60702 44.8931 2.76871 45.225 2.76871 45.5569V46.9676C2.76871 47.2996 2.60702 47.4655 2.36447 47.2996Z" fill="#16110D"/>
</g>
</g>
</svg>
