<svg width="40" height="40" viewBox="0 0 40 40" fill="none" xmlns="http://www.w3.org/2000/svg">
<path d="M9.14071 8.00024H4V32.0001H9.14071V8.00024Z" fill="white"/>
<path d="M17.4295 8H12.2888V31.9999H17.4295V8Z" fill="white"/>
<path d="M12.3289 31.9999C12.3289 31.9999 12.7274 8 36 8V13.1543C17.35 13.1543 17.4696 31.9999 17.4696 31.9999H12.3289Z" fill="white"/>
<path d="M19.8604 31.9995C19.8604 31.9995 20.0198 16.0131 35.9998 16.0131V21.1674C24.1642 21.1674 25.0011 31.9995 25.0011 31.9995H19.8604Z" fill="white"/>
<path d="M32.6126 31.9997C34.4613 31.9997 35.96 30.4853 35.96 28.6171C35.96 26.749 34.4613 25.2346 32.6126 25.2346C30.7638 25.2346 29.2651 26.749 29.2651 28.6171C29.2651 30.4853 30.7638 31.9997 32.6126 31.9997Z" fill="white"/>
</svg>
