<svg width="24" height="24" viewBox="0 0 24 24" fill="none" xmlns="http://www.w3.org/2000/svg">
<path d="M10.5938 10.5938C11 10.1875 11.4688 9.98438 12 9.98438C12.5312 9.98438 13 10.1875 13.4062 10.5938C13.8125 11 14.0156 11.4688 14.0156 12C14.0156 12.5312 13.8125 13 13.4062 13.4062C13 13.8125 12.5312 14.0156 12 14.0156C11.4688 14.0156 11 13.8125 10.5938 13.4062C10.1875 13 9.98438 12.5312 9.98438 12C9.98438 11.4688 10.1875 11 10.5938 10.5938ZM16.5938 10.5938C17 10.1875 17.4688 9.98438 18 9.98438C18.5312 9.98438 19 10.1875 19.4062 10.5938C19.8125 11 20.0156 11.4688 20.0156 12C20.0156 12.5312 19.8125 13 19.4062 13.4062C19 13.8125 18.5312 14.0156 18 14.0156C17.4688 14.0156 17 13.8125 16.5938 13.4062C16.1875 13 15.9844 12.5312 15.9844 12C15.9844 11.4688 16.1875 11 16.5938 10.5938ZM4.59375 10.5938C5 10.1875 5.46875 9.98438 6 9.98438C6.53125 9.98438 7 10.1875 7.40625 10.5938C7.8125 11 8.01562 11.4688 8.01562 12C8.01562 12.5312 7.8125 13 7.40625 13.4062C7 13.8125 6.53125 14.0156 6 14.0156C5.46875 14.0156 5 13.8125 4.59375 13.4062C4.1875 13 3.98438 12.5312 3.98438 12C3.98438 11.4688 4.1875 11 4.59375 10.5938Z" fill="#25282B"/>
</svg>
