<svg width="24" height="24" viewBox="0 0 24 24" fill="none" xmlns="http://www.w3.org/2000/svg">
<path d="M9.89362 10.3906C10.4865 9.79688 11.1887 9.5 12 9.5C12.8113 9.5 13.5135 9.79688 14.1064 10.3906C14.6993 10.9844 14.9957 11.6875 14.9957 12.5C14.9957 13.3125 14.6993 14.0156 14.1064 14.6094C13.5135 15.2031 12.8113 15.5 12 15.5C11.1887 15.5 10.4865 15.2031 9.89362 14.6094C9.30071 14.0156 9.00426 13.3125 9.00426 12.5C9.00426 11.6875 9.30071 10.9844 9.89362 10.3906ZM8.44255 16.0625C9.44114 17.0312 10.627 17.5156 12 17.5156C13.373 17.5156 14.5433 17.0312 15.5106 16.0625C16.5092 15.0625 17.0085 13.875 17.0085 12.5C17.0085 11.125 16.5092 9.95312 15.5106 8.98438C14.5433 7.98438 13.373 7.48438 12 7.48438C10.627 7.48438 9.44114 7.98438 8.44255 8.98438C7.47518 9.95312 6.99149 11.125 6.99149 12.5C6.99149 13.875 7.47518 15.0625 8.44255 16.0625ZM5.30638 7.0625C7.30355 5.6875 9.53475 5 12 5C14.4652 5 16.6965 5.6875 18.6936 7.0625C20.6908 8.4375 22.1262 10.25 23 12.5C22.1262 14.75 20.6908 16.5625 18.6936 17.9375C16.6965 19.3125 14.4652 20 12 20C9.53475 20 7.30355 19.3125 5.30638 17.9375C3.30922 16.5625 1.87376 14.75 1 12.5C1.87376 10.25 3.30922 8.4375 5.30638 7.0625Z" fill="#25282B"/>
</svg>
